HIERARCHY
ROOT ui
{
	 OFFSET 0 0 0
	 CHANNELS 3 XPosition YPosition Z Position
	 EndSite
	 {
	 OFFSET 0 -1 0
	 }
}
ROOT li
{
	 OFFSET 0 0 0
	 CHANNELS 3 XPosition YPosition Z Position
	 EndSite
	 {
	 OFFSET 0 -1 0
	 }
}
ROOT ul
{
	 OFFSET 0 0 0
	 CHANNELS 3 XPosition YPosition Z Position
	 EndSite
	 {
	 OFFSET 0 -1 0
	 }
}
ROOT ll
{
	 OFFSET 0 0 0
	 CHANNELS 3 XPosition YPosition Z Position
	 EndSite
	 {
	 OFFSET 0 -1 0
	 }
}
ROOT tt
{
	 OFFSET 0 0 0
	 CHANNELS 3 XPosition YPosition Z Position
	 EndSite
	 {
	 OFFSET 0 -1 0
	 }
}
ROOT tb
{
	 OFFSET 0 0 0
	 CHANNELS 3 XPosition YPosition Z Position
	 EndSite
	 {
	 OFFSET 0 -1 0
	 }
}
ROOT td
{
	 OFFSET 0 0 0
	 CHANNELS 3 XPosition YPosition Z Position
	 EndSite
	 {
	 OFFSET 0 -1 0
	 }
}
ROOT v
{
	 OFFSET 0 0 0
	 CHANNELS 3 XPosition YPosition Z Position
	 EndSite
	 {
	 OFFSET 0 -1 0
	 }
}
ROOT bn
{
	 OFFSET 0 0 0
	 CHANNELS 3 XPosition YPosition Z Position
	 EndSite
	 {
	 OFFSET 0 -1 0
	 }
}
MOTION
Frames: 32
Frame Time: 0.002
-4.04805988073349E-4	-3.59688013792038E-4	0		0.499936767578125	-2.290055908203125	0		-1.1141112060546876	0.025391069412231446	0		-0.8098717041015625	-2.267300537109375	0		1.5036795654296875	-0.5501925048828125	0		3.203723388671875	-0.026803577423095703	0		4.61081982421875	0.061477500915527346	0		5.57378125	0.17156968688964844	0		-0.0863739776611328	5.975642578125	0		
-5.39775013923645E-4	-4.8208901286125183E-4	0		0.47110791015625	-2.288528564453125	0		-1.102454833984375	0.014890997886657716	0		-0.7737979125976563	-2.271252197265625	0		1.50361181640625	-0.5501310424804687	0		3.208448486328125	-0.03363442230224609	0		4.6065361328125	0.0550013427734375	0		5.5695654296875	0.19002696228027344	0		-0.07399842071533203	5.9872431640625	0		
-6.798059940338135E-4	-6.086249947547912E-4	0		0.49614926147460936	-2.29409912109375	0		-1.118472412109375	0.02094766426086426	0		-0.8136849975585938	-2.27266845703125	0		1.503540771484375	-0.5500687255859374	0		3.16664404296875	-0.016513853073120116	0		4.60638916015625	0.05545337677001953	0		5.57361376953125	0.1734947052001953	0		-0.20828701782226564	5.968794921875	0		
-8.227689862251281E-4	-7.372400164604186E-4	0		0.44340621948242187	-2.288103515625	0		-1.106821044921875	0.01043960189819336	0		-0.7775889282226562	-2.275620849609375	0		1.503467041015625	-0.5500077514648437	0		3.177199951171875	-0.03146084976196289	0		4.61107763671875	0.04780670928955078	0		5.56640966796875	0.1765466766357422	0		-0.2072427978515625	5.9656005859375	0		
0.0020927650928497313	0.002073862075805664	0		0.47561968994140624	-2.2848154296875	0		-1.0969879150390625	0.008974808692932129	0		-0.8072650756835937	-2.266249755859375	0		1.5123299560546875	-0.5531283569335937	0		3.216251708984375	-0.02197418022155762	0		4.618185546875	0.061108280181884765	0		5.576404296875	0.18912652587890624	0		-0.07473460388183593	5.9837919921875	0		
0.009087447166442872	0.008807797431945801	0		0.4778111877441406	-2.281924560546875	0		-1.0989725341796874	0.016754602432250975	0		-0.7352479858398437	-2.272898193359375	0		1.5094527587890625	-0.5430153198242188	0		3.166220947265625	-0.015724378585815428	0		4.6131953125	0.06963488006591798	0		5.56918408203125	0.19039468383789063	0		-0.20898646545410157	5.965294921875	0		
-0.0012480340003967285	-0.0011151670217514039	0		0.498733154296875	-2.292404052734375	0		-1.1149730224609375	0.023819040298461915	0		-0.8090526733398438	-2.26864892578125	0		1.5032391357421875	-0.5498450927734375	0		3.182060302734375	-0.01679791831970215	0		4.60579296875	0.057182960510253907	0		5.573263671875	0.17723240661621092	0		-0.07836488342285156	5.98656396484375	0		
-0.0013840470314025878	-0.0012342109680175781	0		0.47085113525390626	-2.291920654296875	0		-1.03242138671875	0.006956748008728027	0		-0.7391126708984375	-2.278224853515625	0		1.5000848388671875	-0.5537413330078125	0		3.192630126953125	-0.03178406524658203	0		4.60565087890625	0.057563823699951173	0		5.56606201171875	0.1801264190673828	0		-0.2115561065673828	5.96702587890625	0		
-0.0015165120363235473	-0.0013492170572280884	0		0.4709502258300781	-2.29198779296875	0		-1.1034437255859375	0.013119685173034667	0		-0.8108843994140625	-2.271012939453125	0		1.5030855712890625	-0.5497637939453125	0		3.196792236328125	-0.01665695571899414	0		4.60964794921875	0.06483529663085938	0		5.573095703125	0.1788200225830078	0		-0.2454219970703125	5.96053369140625	0		
-0.0016450740098953246	-0.0014599230289459228	0		0.476170166015625	-2.285152587890625	0		-1.1035736083984375	0.012906159400939941	0		-0.7728276977539063	-2.272935791015625	0		1.5060657958984376	-0.5467927856445313	0		3.171533935546875	-0.02298323631286621	0		4.60951318359375	0.06515484619140625	0		5.568845703125	0.19355416870117187	0		-0.0805756378173828	5.98619580078125	0		
0.005364698886871338	0.00529774284362793	0		0.4762417297363281	-2.2852177734375	0		-1.103698974609375	0.012705864906311036	0		-0.8066543579101563	-2.267452392578125	0		1.5059884033203126	-0.5467695922851562	0		3.207250732421875	-0.03151074981689453	0		4.6052490234375	0.05852237319946289	0		5.57293505859375	0.180146484375	0		-0.08023198699951171	5.98506396484375	0		
-0.0018880269527435302	-0.001666545033454895	0		0.49916229248046873	-2.292721923828125	0		-1.0457335205078124	0.016403240203857423	0		-0.7388012084960938	-2.278921142578125	0		1.50285498046875	-0.5496943359375	0		3.20638427734375	-0.018344099044799805	0		4.60925927734375	0.06570315551757812	0		5.5758212890625	0.19441888427734375	0		-0.09502716064453125	5.97422802734375	0		
-0.002001466989517212	-0.00176186203956604	0		0.47121481323242187	-2.292245849609375	0		-1.1198155517578126	0.018651805877685546	0		-0.7767286376953125	-2.277340576171875	0		1.502780029296875	-0.5496840209960937	0		3.19631201171875	-0.016023006439208985	0		4.609853515625	0.0509151725769043	0		5.57278564453125	0.1812169647216797	0		-0.2147298583984375	5.9664072265625	0		
-0.002109044075012207	-0.001851631999015808	0		0.47230618286132814	-2.289325927734375	0		-1.108117431640625	0.008265536308288574	0		-0.7766952514648438	-2.277478515625	0		1.5027064208984375	-0.5496806030273438	0		3.171076416015625	-0.0224361515045166	0		4.60287744140625	0.058243366241455076	0		5.57567724609375	0.19535572814941407	0		-0.21424539184570313	5.96428564453125	0		
8.465420007705689E-4	0.001006932020187378	0		0.450465087890625	-2.281966552734375	0		-1.1041435546875	0.012045586585998535	0		-0.8064974975585938	-2.2680341796875	0		1.514632568359375	-0.5499121704101563	0		3.215025634765625	-0.02018801689147949	0		4.6120380859375	0.07223259735107422	0		5.57561083984375	0.1957208709716797	0		-0.21368545532226563	5.963171875	0		
0.007884603023529052	0.007795650959014893	0		0.5054093017578125	-2.286067138671875	0		-1.100181396484375	0.014841315269470214	0		-0.8064869995117188	-2.268148193359375	0		1.5086982421875	-0.54280712890625	0		3.169131103515625	-0.009245823860168458	0		4.608828125	0.06642510223388672	0		5.575548828125	0.19602366638183594	0		-0.08262038421630859	5.98459228515625	0		
-0.002388966083526611	-0.002083116054534912	0		0.474380615234375	-2.28752978515625	0		-1.10432373046875	0.01180434513092041	0		-0.7746224975585938	-2.27585546875	0		1.5025023193359375	-0.5497036743164062	0		3.185796630859375	-0.022512454986572266	0		4.60460791015625	0.059611568450927736	0		5.57253125	0.18256651306152344	0		-0.08293938446044923	5.98451904296875	0		
-0.0024664220809936526	-0.002147321939468384	0		0.49724172973632813	-2.29501220703125	0		-1.114380859375	0.012892927169799805	0		-0.7746251831054688	-2.275945068359375	0		1.50244287109375	-0.5497183837890625	0		3.175589111328125	-0.0292813777923584	0		4.6045283203125	0.05969884490966797	0		5.56536181640625	0.1848250274658203	0		-0.21562521362304687	5.96395361328125	0		
-0.002536009073257446	-0.002205825090408325	0		0.44637619018554686	-2.2870947265625	0		-1.1044715576171875	0.011615276336669922	0		-0.7766700439453125	-2.277986572265625	0		1.50238818359375	-0.5497357788085937	0		3.19578125	-0.015633349418640138	0		4.61341748046875	0.057596614837646484	0		5.56184423828125	0.1972545166015625	0		-0.24994630432128906	5.95953271484375	0		
-0.0025973939895629883	-0.0022588229179382325	0		0.47436163330078124	-2.287666015625	0		-1.1045333251953124	0.011537293434143066	0		-0.8085419921875	-2.270454345703125	0		1.511281005859375	-0.5529239501953125	0		3.164744384765625	-0.014029033660888672	0		4.60852587890625	0.06674102783203124	0		5.5753515625	0.1967575225830078	0		-0.0836440658569336	5.98433642578125	0		
0.004480991840362549	0.00456072998046875	0		0.47639056396484375	-2.2857421875	0		-1.110490478515625	0.01658109474182129	0		-0.7726137084960938	-2.2741953125	0		1.5022974853515625	-0.54977294921875	0		3.20151611328125	-0.02371131706237793	0		4.60847216796875	0.06678236389160157	0		5.57531689453125	0.19685858154296876	0		-0.0838114013671875	5.98428759765625	0		
-0.002691927909851074	-0.0023471848964691164	0		0.499250732421875	-2.293207275390625	0		-1.108702880859375	0.007485317230224609	0		-0.8105922241210938	-2.27253369140625	0		1.502264404296875	-0.549788818359375	0		3.21043505859375	-0.025867815017700194	0		4.60914599609375	0.05180245590209961	0		5.572328125	0.1832398681640625	0		-0.09815876007080078	5.9735107421875	0		
-0.002722965955734253	-0.0023818540573120116	0		0.4712587890625	-2.29270751953125	0		-1.04657568359375	0.015265780448913574	0		-0.7407523803710937	-2.281896484375	0		1.499166748046875	-0.553743896484375	0		3.180597900390625	-0.015291799545288086	0		4.604265625	0.059929183959960934	0		5.56518994140625	0.18537681579589843	0		-0.2316693115234375	5.9539814453125	0		
-0.0027415568828582765	-0.00240960693359375	0		0.47127084350585935	-2.292728759765625	0		-1.1087528076171875	0.00739162015914917	0		-0.8126337280273438	-2.275580810546875	0		1.502230224609375	-0.5498087158203125	0		3.170449462890625	-0.02208767318725586	0		4.608376953125	0.0668865966796875	0		5.5722958984375	0.18340071105957031	0		-0.21560115051269532	5.9626484375	0		
0.004384353160858155	0.004437620162963867	0		0.4764256591796875	-2.285838134765625	0		-1.0987779541015625	0.00617009687423706	0		-0.7705420532226562	-2.27240087890625	0		1.5142305908203124	-0.5500354614257813	0		3.214493896484375	-0.019895557403564454	0		4.60018505859375	0.0570761833190918	0		5.57819970703125	0.209169921875	0		-0.08230872344970704	5.98112255859375	0		
0.007451673030853271	0.007369490146636963	0		0.47852142333984377	-2.282881591796875	0		-1.1006158447265626	0.014181365966796875	0		-0.8064397583007813	-2.268746337890625	0		1.5083814697265625	-0.5429166259765625	0		3.184698974609375	-0.009305499076843261	0		4.60838232421875	0.06696967315673828	0		5.575263671875	0.19728997802734374	0		-0.08431433868408203	5.98414697265625	0		
0.004424440860748291	0.004423858165740967	0		0.4993877868652344	-2.2932705078125	0		-1.0296749267578125	0.008832928657531738	0		-0.7365446166992188	-2.278071533203125	0		1.5022867431640625	-0.5497860717773437	0		3.164637451171875	-0.013891210556030273	0		4.60427978515625	0.06010217666625976	0		5.56815380859375	0.19773147583007813	0		-0.08436199188232422	5.9841435546875	0		
-0.002660043001174927	-0.002438436985015869	0		0.47252444458007814	-2.2897529296875	0		-1.1086717529296874	0.007306778907775879	0		-0.8103811645507812	-2.272688720703125	0		1.5023394775390626	-0.5497612915039063	0		3.206375732421875	-0.030629589080810548	0		4.60917333984375	0.05207516479492187	0		5.572359375	0.18383226013183593	0		-0.21680279541015626	5.96362744140625	0		
-0.002598223924636841	-0.002427467107772827	0		0.47156005859375	-2.292716552734375	0		-1.108610107421875	0.007303318977355957	0		-0.774352294921875	-2.276362548828125	0		1.502408447265625	-0.549730712890625	0		3.185591552734375	-0.022184572219848632	0		4.591369140625	0.059482433319091796	0		5.56181494140625	0.19829917907714845	0		-0.2168188018798828	5.96363525390625	0		
-0.0025210230350494385	-0.0024124119281768797	0		0.45085772705078125	-2.2823037109375	0		-1.1044588623046876	0.011228504180908204	0		-0.8081461791992187	-2.270721435546875	0		1.50554833984375	-0.5467529907226563	0		3.19579833984375	-0.015316957473754883	0		4.60859228515625	0.06723687744140625	0		5.57542041015625	0.1978317565917969	0		-0.2168184814453125	5.96364794921875	0		
0.004701001167297363	0.004473090171813965	0		0.5038769836425782	-2.288271240234375	0		-1.029398681640625	0.008828261375427245	0		-0.770049560546875	-2.27242529296875	0		1.5087220458984374	-0.5427723388671875	0		3.189854248046875	-0.017144641876220702	0		4.60868359375	0.06731507110595703	0		5.57548779296875	0.19798716735839844	0		-0.08439710235595703	5.98418798828125	0		
-0.002321676015853882	-0.002375464916229248	0		0.47502105712890624	-2.28770263671875	0		-1.1042598876953125	0.011235631942749024	0		-0.7719478759765624	-2.274379150390625	0		1.5027069091796874	-0.5496185913085937	0		3.205958740234375	-0.017380136489868164	0		4.60878955078125	0.06739860534667969	0		5.57260595703125	0.18444497680664063	0		-0.0843735122680664	5.9842060546875	0		
